# xmcd
# 
# Track frame offsets:
#     150
#     12707
#     26916
#     42168
#     56666
# 
# Disc length: 995
# 
# Revision: 0
# Processed by: cddbd v1.5.2PL0 Copyright (c) Steve Scherf et al.
# Submitted via: BonkEnc v1.0.8
# 
DISCID=4003e105
DTITLE=v/a - Popcorn
DYEAR=0
DGENRE=Pop
TTITLE0=crazy frog - popcorn
TTITLE1=uniting nations feat laura more - ai no corrida
TTITLE2=vinylshakerz - club tropicana
TTITLE3=elize - automatic - i'm talking to you
TTITLE4=public dj feat emanuelle - my night
EXTD=
EXTT0=
EXTT1=
EXTT2=
EXTT3=
EXTT4=
PLAYORDER=
